<?xml version="1.0" ?><svg enable-background="new 0 0 512 512" id="Layer_1" version="1.1" viewBox="0 0 512 512" xml:space="preserve" xmlns="http://www.w3.org/2000/svg" xmlns:xlink="http://www.w3.org/1999/xlink"><g><g><linearGradient gradientUnits="userSpaceOnUse" id="SVGID_1_" x1="0.0000038" x2="512" y1="256" y2="256"><stop offset="0" style="stop-color:#FFCA05"/><stop offset="1" style="stop-color:#FAAC18"/></linearGradient><circle cx="256" cy="256" fill="url(#SVGID_1_)" r="256"/><linearGradient gradientUnits="userSpaceOnUse" id="SVGID_2_" x1="42.6666679" x2="469.3333435" y1="256.0005188" y2="256.0005188"><stop offset="0" style="stop-color:#FAAC18"/><stop offset="1" style="stop-color:#FFCA05"/></linearGradient><path d="M256,469.3338623c-117.6314697,0-213.3333282-95.7018738-213.3333282-213.3333435    S138.3685303,42.6671982,256,42.6671982c117.636261,0,213.3333435,95.7018661,213.3333435,213.333313    S373.636261,469.3338623,256,469.3338623z" fill="url(#SVGID_2_)"/></g><g><path d="M263.9995728,228.5242615c-27.4559937,0-49.7926331,22.3344116-49.7926331,49.7904053    s22.3366394,49.789856,49.7926331,49.789856s49.7924194-22.3338623,49.7924194-49.789856    S291.4555664,228.5242615,263.9995728,228.5242615z M300.2496033,283.3146667h-31.2501221V314.56427h-10v-31.2496033h-31.2501526    v-10h31.2501526v-31.2501373h10v31.2501373h31.2501221V283.3146667z" opacity="0.3"/><path d="M369,193.4426727h-62.5002747v-28.6293335h-84.9999847v28.6293335H159c-8.2842712,0-15,6.7151947-15,15    V348.186676c0,8.2832031,6.7157288,15,15,15h210c8.2837219,0,15-6.7167969,15-15V208.4426727    C384,200.1578674,377.2837219,193.4426727,369,193.4426727z M231.4997406,174.8133392h64.9999847v18.6282654h-64.9999847    V174.8133392z M263.9995728,338.1045227c-32.9691772,0-59.7926331-26.8208008-59.7926331-59.789856    c0-32.9685364,26.8234558-59.7904053,59.7926331-59.7904053c32.9684143,0,59.7924194,26.8218689,59.7924194,59.7904053    C323.7919922,311.2837219,296.9679871,338.1045227,263.9995728,338.1045227z" opacity="0.3"/></g><g><path d="M255.9995728,220.5242615c-27.4559937,0-49.7926331,22.3344116-49.7926331,49.7904053    s22.3366394,49.789856,49.7926331,49.789856s49.7924194-22.3338623,49.7924194-49.789856    S283.4555664,220.5242615,255.9995728,220.5242615z M292.2496033,275.3146667h-31.2501221V306.56427h-10.0000153v-31.2496033    h-31.2501373v-10h31.2501373v-31.2501373h10.0000153v31.2501373h31.2501221V275.3146667z" fill="#FFFFFF"/><path d="M361,185.4426727h-62.5002747v-28.6293335h-84.9999847v28.6293335H151c-8.2842712,0-15,6.7151947-15,15    V340.186676c0,8.2832031,6.7157288,15,15,15h210c8.2837219,0,15-6.7167969,15-15V200.4426727    C376,192.1578674,369.2837219,185.4426727,361,185.4426727z M223.4997406,166.8133392h64.9999847v18.6282654h-64.9999847    V166.8133392z M255.9995728,330.1045227c-32.9691772,0-59.7926331-26.8208008-59.7926331-59.789856    c0-32.9685364,26.8234558-59.7904053,59.7926331-59.7904053c32.9684143,0,59.7924194,26.8218689,59.7924194,59.7904053    C315.7919922,303.2837219,288.9679871,330.1045227,255.9995728,330.1045227z" fill="#FFFFFF"/></g></g></svg>